<?xml version="1.0" encoding="UTF-8" standalone="no"?>
<svg
   xmlns:dc="http://purl.org/dc/elements/1.1/"
   xmlns:cc="http://creativecommons.org/ns#"
   xmlns:rdf="http://www.w3.org/1999/02/22-rdf-syntax-ns#"
   xmlns:svg="http://www.w3.org/2000/svg"
   xmlns="http://www.w3.org/2000/svg"
   xmlns:sodipodi="http://sodipodi.sourceforge.net/DTD/sodipodi-0.dtd"
   xmlns:inkscape="http://www.inkscape.org/namespaces/inkscape"
   sodipodi:docname="icon.svg"
   inkscape:version="1.0.2 (e86c870879, 2021-01-15)"
   id="svg8"
   version="1.1"
   viewBox="0 0 33.866666 33.866668"
   height="128"
   width="128"
   inkscape:export-filename="/home/ratus5/Downloads/Projects/Code/alphabetical-grid-extension/docs/icon.png"
   inkscape:export-xdpi="384"
   inkscape:export-ydpi="384">
  <defs
     id="defs2">
    <rect
       x="-3.3468242"
       y="-9.3717794"
       width="2.1569738"
       height="3.0920596"
       id="rect869" />
    <rect
       x="-3.3468242"
       y="-9.3717794"
       width="2.1569738"
       height="3.0920596"
       id="rect877" />
    <rect
       x="-3.3468242"
       y="-9.3717794"
       width="2.1569738"
       height="3.0920596"
       id="rect883" />
    <rect
       x="-3.3468242"
       y="-9.3717794"
       width="2.1569738"
       height="3.0920596"
       id="rect889" />
  </defs>
  <sodipodi:namedview
     inkscape:window-maximized="1"
     inkscape:window-y="27"
     inkscape:window-x="2004"
     inkscape:window-height="1016"
     inkscape:window-width="1836"
     units="px"
     showgrid="false"
     inkscape:document-rotation="0"
     inkscape:current-layer="svg8"
     inkscape:document-units="px"
     inkscape:cy="72.168478"
     inkscape:cx="57.575738"
     inkscape:zoom="2.8284273"
     inkscape:pageshadow="2"
     inkscape:pageopacity="0.0"
     borderopacity="1.0"
     bordercolor="#666666"
     pagecolor="#ffffff"
     id="base" />
  <metadata
     id="metadata5">
    <rdf:RDF>
      <cc:Work
         rdf:about="">
        <dc:format>image/svg+xml</dc:format>
        <dc:type
           rdf:resource="http://purl.org/dc/dcmitype/StillImage" />
        <dc:title></dc:title>
      </cc:Work>
    </rdf:RDF>
  </metadata>
  <rect
     style="fill:#000000;stroke-width:2.15387;stroke-linecap:round;stroke-linejoin:round;paint-order:markers fill stroke;opacity:0.4"
     id="rect866"
     width="29.633333"
     height="29.633333"
     x="2.1166668"
     y="3.1750002"
     ry="2.7850754" />
  <rect
     style="fill:#4d4d4d;stroke-width:2.15387;stroke-linecap:round;stroke-linejoin:round;paint-order:markers fill stroke"
     id="rect858"
     width="29.633333"
     height="29.633333"
     x="2.1166668"
     y="2.1166668"
     ry="2.7850754" />
  <path
     id="rect898"
     style="opacity:0.4;fill:#000000;stroke-width:0.76924;stroke-linecap:round;stroke-linejoin:round;paint-order:markers fill stroke"
     d="m 5.2275877,5.2916665 c -0.551047,0 -0.9942545,0.4432075 -0.9942545,0.9942546 v 8.5948239 c 0,0.551047 0.4432075,0.994255 0.9942545,0.994255 h 8.5948243 c 0.551047,0 0.994254,-0.443208 0.994254,-0.994255 V 6.2859211 c 0,-0.5510471 -0.443207,-0.9942546 -0.994254,-0.9942546 z m 14.8166663,0 C 19.493208,5.2916665 19.05,5.734874 19.05,6.2859211 v 8.5948239 c 0,0.551047 0.443208,0.994255 0.994254,0.994255 h 8.594825 c 0.551046,0 0.994254,-0.443208 0.994254,-0.994255 V 6.2859211 c 0,-0.5510471 -0.443208,-0.9942546 -0.994254,-0.9942546 z M 5.2275877,20.108333 c -0.551047,0 -0.9942545,0.443208 -0.9942545,0.994255 v 8.594824 c 0,0.551047 0.4432075,0.994254 0.9942545,0.994254 h 8.5948243 c 0.551047,0 0.994254,-0.443207 0.994254,-0.994254 v -8.594824 c 0,-0.551047 -0.443207,-0.994255 -0.994254,-0.994255 z m 14.8166663,0 c -0.551046,0 -0.994254,0.443208 -0.994254,0.994255 v 8.594824 c 0,0.551047 0.443208,0.994254 0.994254,0.994254 h 8.594825 c 0.551046,0 0.994254,-0.443207 0.994254,-0.994254 v -8.594824 c 0,-0.551047 -0.443208,-0.994255 -0.994254,-0.994255 z" />
  <g
     id="g983"
     transform="scale(4)">
    <g
       id="g876"
       transform="matrix(0.83333335,0,0,0.83333335,0.61736108,0.61736108)">
      <rect
         style="fill:#00ffff;stroke-width:0.230772;stroke-linecap:round;stroke-linejoin:round;paint-order:markers fill stroke"
         id="rect839"
         width="3.175"
         height="3.175"
         x="0.5291667"
         y="0.5291667"
         ry="0.29840094" />
      <text
         xml:space="preserve"
         id="text867"
         style="font-style:normal;font-variant:normal;font-weight:normal;font-stretch:normal;font-size:2.64583px;line-height:1.25;font-family:ubuntu;-inkscape-font-specification:ubuntu;white-space:pre;shape-inside:url(#rect869);fill:#ffffff;fill-opacity:1;stroke:none;"
         transform="matrix(1.0000013,0,0,1,4.5872335,9.9373236)"><tspan
           x="-3.3476562"
           y="-6.903878"><tspan
             style="font-style:normal;font-variant:normal;font-weight:normal;font-stretch:normal;font-size:2.64583px;font-family:ubuntu;-inkscape-font-specification:ubuntu;fill:#ffffff">A</tspan></tspan></text>
    </g>
    <g
       id="g882"
       transform="matrix(0.83333335,0,0,0.83333335,0.7937501,0.61736108)">
      <rect
         style="fill:#00ff00;stroke-width:0.230772;stroke-linecap:round;stroke-linejoin:round;paint-order:markers fill stroke"
         id="rect861"
         width="3.175"
         height="3.175"
         x="4.7624998"
         y="0.5291667"
         ry="0.29840094" />
      <text
         xml:space="preserve"
         id="text875"
         style="font-style:normal;font-variant:normal;font-weight:normal;font-stretch:normal;font-size:2.64583px;line-height:1.25;font-family:ubuntu;-inkscape-font-specification:ubuntu;white-space:pre;shape-inside:url(#rect877);fill:#ffffff;fill-opacity:1;stroke:none;"
         transform="translate(8.8007191,9.9386464)"><tspan
           x="-3.3476562"
           y="-6.903878"><tspan
             style="font-style:normal;font-variant:normal;font-weight:normal;font-stretch:normal;font-size:2.64583px;font-family:ubuntu;-inkscape-font-specification:ubuntu;fill:#ffffff">B</tspan></tspan></text>
    </g>
    <g
       id="g888"
       transform="matrix(0.83333335,0,0,0.83333335,0.61736108,0.7937501)">
      <rect
         style="fill:#fc931d;fill-opacity:1;stroke-width:0.230772;stroke-linecap:round;stroke-linejoin:round;paint-order:markers fill stroke"
         id="rect865"
         width="3.175"
         height="3.175"
         x="0.5291667"
         y="4.7624998"
         ry="0.29840094" />
      <text
         xml:space="preserve"
         id="text881"
         style="font-style:normal;font-variant:normal;font-weight:normal;font-stretch:normal;font-size:2.64583px;line-height:1.25;font-family:ubuntu;-inkscape-font-specification:ubuntu;white-space:pre;shape-inside:url(#rect883);fill:#ffffff;fill-opacity:1;stroke:none;"
         transform="matrix(1,0,0,1.0000013,4.6004585,14.171991)"><tspan
           x="-3.3476562"
           y="-6.903878"><tspan
             style="font-style:normal;font-variant:normal;font-weight:normal;font-stretch:normal;font-size:2.64583px;font-family:ubuntu;-inkscape-font-specification:ubuntu;fill:#ffffff">C</tspan></tspan></text>
    </g>
    <g
       id="g894"
       transform="matrix(0.83333335,0,0,0.83333335,0.7937501,0.7937501)">
      <rect
         style="fill:#f52547;fill-opacity:1;stroke-width:0.230772;stroke-linecap:round;stroke-linejoin:round;paint-order:markers fill stroke"
         id="rect863"
         width="3.175"
         height="3.175"
         x="4.7624998"
         y="4.7624998"
         ry="0.29840094" />
      <text
         xml:space="preserve"
         id="text887"
         style="font-style:normal;font-variant:normal;font-weight:normal;font-stretch:normal;font-size:2.64583px;line-height:1.25;font-family:ubuntu;-inkscape-font-specification:ubuntu;white-space:pre;shape-inside:url(#rect889);fill:#ffffff;fill-opacity:1;stroke:none;"
         transform="matrix(1.0000013,0,0,1.0000013,8.7173794,14.171991)"><tspan
           x="-3.3476562"
           y="-6.903878"><tspan
             style="font-style:normal;font-variant:normal;font-weight:normal;font-stretch:normal;font-size:2.64583px;font-family:ubuntu;-inkscape-font-specification:ubuntu;fill:#ffffff">D</tspan></tspan></text>
    </g>
  </g>
</svg>
